<svg width="24" height="24" viewBox="0 0 24 24" fill="none" xmlns="http://www.w3.org/2000/svg">
  <!-- NVIDIA Logo: Stylized Eye/N with Folded Rectangle -->
  <!-- Left Side: Stylized Eye/N -->
  <path d="M6 4L6 12L10 8L10 4L6 4Z" fill="#76B900"/>
  <path d="M6 12L10 8L14 12L10 16L6 12Z" fill="#76B900"/>
  <path d="M10 16L14 12L14 20L10 20L10 16Z" fill="#76B900"/>
  <!-- Right Side: Folded Rectangle -->
  <path d="M14 4L18 4L18 12L14 8L14 4Z" fill="#76B900"/>
  <path d="M14 8L18 12L18 20L14 20L14 8Z" fill="#76B900"/>
  <!-- Center Highlight -->
  <path d="M11 10L13 10L13 12L11 12Z" fill="white" opacity="0.8"/>
</svg>
