<svg xmlns="http://www.w3.org/2000/svg" viewBox="0 0 200 220" width="200" height="220">
<style type="text/css">
	.st1{fill-rule:evenodd;clip-rule:evenodd;fill:#FFFFFF;}
</style>
<path class="st1" d="M127,6.4c-2.1-2.5-5.6-3.1-8.4-1.5L116,6.3l0,0l0,0L87.7,22.4l6.6,11.6l18.4-10.5l-4.5,24.6l13.1,2.4l4.6-24.7
  L139.5,42l10.2-8.6L129.1,8.8l0,0l-0.1,0L127,6.4z M87.3,213.9c6.8,0,12.3-5.4,12.3-12c0-6.6-5.5-12-12.3-12
  c-6.8,0-12.3,5.4-12.3,12C74.9,208.5,80.5,213.9,87.3,213.9z M103.8,148l-4.4,24.7l-13.2-2.4l4.4-24.6l-18.4,10.6l-6.7-11.6
  l28.1-16.1l0,0l0,0l2.6-1.5c2.8-1.6,6.3-1,8.4,1.5l2,2.4l0,0l0,0l20.9,24.5l-10.2,8.7L103.8,148z M114.5,89l-4.4,24.7l-13.2-2.4
  l4.4-24.5L83,97.3l-6.6-11.6l28-16l0-0.2l0.2,0l2.6-1.5c2.8-1.6,6.3-1,8.4,1.5l2,2.3l0,0l0,0l20.8,24.6l-10.2,8.7L114.5,89z
   M28.2,186.6L28.2,186.6l-0.1,0l-2.7-0.8c-2.9-0.8-4.8-3.6-4.6-6.6l2.4-33.4l12.7,0.9l-1.5,20.3l19.7-13.4l7.1,10.5l-19.3,13.1
  l19.7,5.7l-3.5,12.2L28.2,186.6z M158.9,200.4L158.9,200.4L158.9,200.4l-0.9,2.9c-0.9,2.8-3.5,4.7-6.5,4.5l-2.8-0.2l-0.2,0.1
  l-0.1-0.1l-31-2.1l0.8-12.7l20.6,1.4l-13.5-18.9l10.3-7.4l13.8,19.4l6-19.6l12.1,3.7L158.9,200.4z M195.3,131.6L195.3,131.6
  L195.3,131.6l1.5,2.7c1.5,2.7,0.9,6.1-1.5,8.1l-2.2,1.9l0,0.1l-0.1,0l-24.1,20.4l-8.4-9.9l15.8-13.4l-23.7-4.2l2.3-12.8l23.9,4.2
  l-10-18l11.3-6.3L195.3,131.6z M170.8,75.8l-21.4,11.5l-6.2-11.4l21.1-11.3L145,56.7l4.9-12l29.4,11.9l0.1-0.1l0.1,0.2l2.7,1.1
  c2.9,1.2,4.5,4.2,4,7.2l-0.5,3l0,0l0,0l-5.5,30.5l-12.8-2.3L170.8,75.8z M27.2,102.6l23.8,4l-2.2,12.8l-24-4.1l10.2,18l-11.3,6.4
  L8.3,112.6l0,0l0,0L6.8,110c-1.5-2.7-0.9-6.1,1.4-8.1l2.2-1.9l0-0.1l0.1,0l23.8-20.5l8.5,9.9L27.2,102.6z M63.1,47.2l15.8,17.6
  l-9.7,8.7l-16.2-18L49.3,76l-12.8-2.3l5.6-30.4l0,0l0,0l0.6-3.1c0.5-3,3.1-5.2,6.1-5.3l2.8-0.1l0.1-0.1l0.1,0.1l31.8-1.3l0.5,13
  L63.1,47.2z"/>
</svg>